<?xml version="1.0" encoding="UTF-8"?>
<svg version="1.1" xmlns="http://www.w3.org/2000/svg" width="100" height="100">
<path d="M0 0 C1.3202548 0.70138536 2.62824589 1.42642292 3.921875 2.17578125 C6.09521905 3.23202646 7.85351078 3.52155768 10.25 3.75 C13.875 4.125 13.875 4.125 15.875 6.125 C15.875 7.115 15.875 8.105 15.875 9.125 C17.525 9.125 19.175 9.125 20.875 9.125 C21.37 10.61 21.37 10.61 21.875 12.125 C23.85545559 12.78679847 23.85545559 12.78679847 25.875 13.125 C26.875 14.125 26.875 14.125 27.0625 17.0625 C26.875 20.125 26.875 20.125 24.875 22.125 C22.25 22.75 22.25 22.75 19.875 23.125 C20.535 23.82625 21.195 24.5275 21.875 25.25 C24.90679558 29.67048517 24.07679719 34.64988674 23.8203125 39.78515625 C23.87525315 43.14046009 24.30823783 45.18056764 25.875 48.125 C26.535 48.455 27.195 48.785 27.875 49.125 C28.205 49.785 28.535 50.445 28.875 51.125 C31.40233235 51.78055119 31.40233235 51.78055119 33.875 52.125 C33.875 52.455 33.875 52.785 33.875 53.125 C31.235 53.125 28.595 53.125 25.875 53.125 C25.606875 53.888125 25.33875 54.65125 25.0625 55.4375 C23.9114442 58.04252101 23.07046244 59.36863005 20.875 61.125 C17.40174819 62.2827506 14.51432552 62.19366652 10.875 62.125 C10.50375 63.053125 10.50375 63.053125 10.125 64 C8.58677504 66.61498244 7.75149576 67.19208246 4.875 68.125 C0.99033424 68.41275302 -1.6157782 68.32868872 -5.25 66.875 C-6.19875 66.6275 -7.1475 66.38 -8.125 66.125 C-10.70619071 67.85622465 -10.70619071 67.85622465 -13.125 70.125 C-18.7758658 72.69357536 -24.71570234 73.25081169 -30.6328125 71.296875 C-33.94437023 69.87003019 -36.55953219 68.69046781 -39.125 66.125 C-41.06491404 65.70362715 -41.06491404 65.70362715 -43.1875 65.5625 C-47.125 65.125 -47.125 65.125 -48.125 64.125 C-48.16580783 62.12541636 -48.16754356 60.12454746 -48.125 58.125 C-46.64 57.63 -46.64 57.63 -45.125 57.125 C-44.63 54.155 -44.63 54.155 -44.125 51.125 C-45.011875 51.0425 -45.89875 50.96 -46.8125 50.875 C-50.57200715 50.02379084 -52.34584432 48.74534678 -55.125 46.125 C-56.73225635 42.91048731 -56.18248185 39.68887464 -56.125 36.125 C-57.445 35.465 -58.765 34.805 -60.125 34.125 C-60.125 33.795 -60.125 33.465 -60.125 33.125 C-59.196875 32.856875 -58.26875 32.58875 -57.3125 32.3125 C-54.26811405 31.178317 -53.22788378 30.42815842 -51.125 28.125 C-50.135 27.795 -49.145 27.465 -48.125 27.125 C-47.0688454 25.39246772 -47.0688454 25.39246772 -46.25 23.3125 C-44.48532329 19.53974289 -42.69440894 17.41308266 -39.125 15.125 C-36.24288698 14.16429566 -34.42649956 14.01918117 -31.4375 14.0625 C-30.22513672 14.07603516 -30.22513672 14.07603516 -28.98828125 14.08984375 C-28.06595703 14.10724609 -28.06595703 14.10724609 -27.125 14.125 C-27.0425 13.403125 -26.96 12.68125 -26.875 11.9375 C-25.70694127 7.55727976 -23.76618325 5.22012228 -19.98828125 2.69921875 C-13.59974357 -0.86111229 -7.0657428 -2.9094235 0 0 Z " fill="#C2E5DE" transform="translate(65.125,14.875)"/>
<path d="M0 0 C2.48340903 -0.26727014 4.71472068 -0.34866334 7.1953125 -0.29296875 C8.25647781 -0.28660149 8.25647781 -0.28660149 9.33908081 -0.28010559 C11.60143905 -0.26329547 13.86291048 -0.22564128 16.125 -0.1875 C17.65753923 -0.17245607 19.1900924 -0.15876716 20.72265625 -0.14648438 C24.48211318 -0.11338462 28.24090618 -0.06158825 32 0 C32 0.66 32 1.32 32 2 C33.65 2 35.3 2 37 2 C37.495 2.99 37.495 2.99 38 4 C38.66 3.34 39.32 2.68 40 2 C41.9881184 3.9881184 41.2113909 7.89083034 41.23828125 10.61328125 C41.246353 11.37924118 41.25442474 12.14520111 41.26274109 12.93437195 C41.2765975 14.55933356 41.28731267 16.18432446 41.29516602 17.80932617 C41.31235851 20.29206815 41.35622529 22.77347151 41.40039062 25.25585938 C41.41051908 26.83332352 41.41903471 28.41079901 41.42578125 29.98828125 C41.44328934 30.73008133 41.46079742 31.47188141 41.47883606 32.23616028 C41.46484706 35.56990016 41.22205458 37.66044029 39.38061523 40.47631836 C36.24031563 42.48622604 34.19861555 42.45815665 30.484375 42.390625 C29.23398437 42.37773438 27.98359375 42.36484375 26.6953125 42.3515625 C24.74238281 42.30128906 24.74238281 42.30128906 22.75 42.25 C21.43257812 42.23195312 20.11515625 42.21390625 18.7578125 42.1953125 C15.50447692 42.14816271 12.25260375 42.08236044 9 42 C8.73662842 42.64598145 8.47325684 43.29196289 8.2019043 43.95751953 C7.80527588 44.63153809 7.40864746 45.30555664 7 46 C3.76953125 46.6796875 3.76953125 46.6796875 -0.1875 46.875 C-1.48042969 46.95492187 -2.77335937 47.03484375 -4.10546875 47.1171875 C-8.20422932 46.99385468 -11.14406956 46.29031135 -15 45 C-15 43.68 -15 42.36 -15 41 C-13.515 40.505 -13.515 40.505 -12 40 C-11.26676204 37.98491642 -11.26676204 37.98491642 -11 36 C-10.21625 36.04125 -9.4325 36.0825 -8.625 36.125 C-5.83883881 36.28728734 -5.83883881 36.28728734 -4 34 C-1.9375 34.1875 -1.9375 34.1875 0 35 C0.33 35.99 0.66 36.98 1 38 C2.71039989 38.58794996 4.18477881 39 6 39 C5.38125 38.7525 4.7625 38.505 4.125 38.25 C1.64931313 36.79371361 1.04874998 35.62187494 0 33 C-0.66 33 -1.32 33 -2 33 C-2.04946113 28.78248718 -2.08574827 24.56512832 -2.10986328 20.34741211 C-2.119917 18.91281188 -2.13356194 17.47823211 -2.15087891 16.04370117 C-2.17515549 13.98090562 -2.18648919 11.91838115 -2.1953125 9.85546875 C-2.20578613 8.61434326 -2.21625977 7.37321777 -2.22705078 6.09448242 C-2 3 -2 3 0 0 Z " fill="#EBE7DB" transform="translate(33,33)"/>
<path d="M0 0 C1.44733641 -0.06425092 2.89549154 -0.11024988 4.34375 -0.1484375 C5.15005859 -0.17599121 5.95636719 -0.20354492 6.78710938 -0.23193359 C9 0 9 0 11.5 2.375 C14.47900496 7.58825869 13.99724423 11.54460909 13.83984375 17.51953125 C13.99497135 20.89071893 14.42833194 23.03737832 16 26 C16.66 26.33 17.32 26.66 18 27 C18.495 27.99 18.495 27.99 19 29 C21.52733235 29.65555119 21.52733235 29.65555119 24 30 C24 30.33 24 30.66 24 31 C21.36 31 18.72 31 16 31 C15.731875 31.763125 15.46375 32.52625 15.1875 33.3125 C14.0364442 35.91752101 13.19546244 37.24363005 11 39 C7.52674819 40.1577506 4.63932552 40.06866652 1 40 C0.7525 40.61875 0.505 41.2375 0.25 41.875 C-1.28822496 44.48998244 -2.12350424 45.06708246 -5 46 C-8.88466576 46.28775302 -11.4907782 46.20368872 -15.125 44.75 C-16.07375 44.5025 -17.0225 44.255 -18 44 C-20.58119071 45.73122465 -20.58119071 45.73122465 -23 48 C-28.67891566 50.5813253 -34.53555457 51.0468885 -40.5078125 49.2421875 C-46.54493786 46.77686621 -46.54493786 46.77686621 -48.25390625 43.859375 C-48.50011719 43.24578125 -48.74632813 42.6321875 -49 42 C-47.94039062 42.03480469 -46.88078125 42.06960937 -45.7890625 42.10546875 C-44.40105748 42.13360399 -43.01303537 42.16090443 -41.625 42.1875 C-40.92632812 42.21263672 -40.22765625 42.23777344 -39.5078125 42.26367188 C-37.23252323 42.32978561 -37.23252323 42.32978561 -34 42 C-33.34 41.01 -32.68 40.02 -32 39 C-29.25024414 38.61523438 -29.25024414 38.61523438 -25.78515625 38.59375 C-24.54185547 38.57183594 -23.29855469 38.54992187 -22.01757812 38.52734375 C-20.71240234 38.51832031 -19.40722656 38.50929687 -18.0625 38.5 C-15.49075738 38.48216721 -12.91906213 38.45152592 -10.34765625 38.40625 C-9.20304932 38.39916016 -8.05844238 38.39207031 -6.87915039 38.38476562 C-4.07210684 38.18680908 -4.07210684 38.18680908 -2.13525391 36.97143555 C-0.33091355 33.83809181 -0.51828899 30.57332133 -0.48828125 27.05078125 C-0.47033005 26.27816452 -0.45237885 25.50554779 -0.43388367 24.70951843 C-0.37973896 22.243901 -0.34587269 19.77847757 -0.3125 17.3125 C-0.27933048 15.63994694 -0.24484115 13.96741949 -0.20898438 12.29492188 C-0.12401051 8.1967545 -0.0572198 4.09864506 0 0 Z " fill="#C7ECE5" transform="translate(75,37)"/>
<path d="M0 0 C0.804375 -0.00128906 1.60875 -0.00257812 2.4375 -0.00390625 C3.283125 -0.00003906 4.12875 0.00382812 5 0.0078125 C6.2684375 0.00201172 6.2684375 0.00201172 7.5625 -0.00390625 C8.366875 -0.00261719 9.17125 -0.00132813 10 0 C10.7425 0.00112793 11.485 0.00225586 12.25 0.00341797 C14 0.1328125 14 0.1328125 15 1.1328125 C15.09983058 3.12038278 15.13080753 5.1114877 15.1328125 7.1015625 C15.13474609 8.91720703 15.13474609 8.91720703 15.13671875 10.76953125 C15.13285156 12.04441406 15.12898438 13.31929687 15.125 14.6328125 C15.13080078 16.54513672 15.13080078 16.54513672 15.13671875 18.49609375 C15.13542969 19.70652344 15.13414063 20.91695312 15.1328125 22.1640625 C15.13168457 23.28361328 15.13055664 24.40316406 15.12939453 25.55664062 C15 28.1328125 15 28.1328125 14 29.1328125 C12.66956375 29.2311846 11.33406656 29.26359842 10 29.265625 C9.195625 29.26691406 8.39125 29.26820312 7.5625 29.26953125 C6.716875 29.26566406 5.87125 29.26179688 5 29.2578125 C4.154375 29.26167969 3.30875 29.26554687 2.4375 29.26953125 C1.633125 29.26824219 0.82875 29.26695313 0 29.265625 C-0.7425 29.26449707 -1.485 29.26336914 -2.25 29.26220703 C-4 29.1328125 -4 29.1328125 -5 28.1328125 C-5.09983058 26.14524222 -5.13080753 24.1541373 -5.1328125 22.1640625 C-5.13410156 20.95363281 -5.13539062 19.74320313 -5.13671875 18.49609375 C-5.13285156 17.22121094 -5.12898438 15.94632813 -5.125 14.6328125 C-5.12886719 13.35792969 -5.13273437 12.08304688 -5.13671875 10.76953125 C-5.13542969 9.55910156 -5.13414063 8.34867188 -5.1328125 7.1015625 C-5.13168457 5.98201172 -5.13055664 4.86246094 -5.12939453 3.70898438 C-4.92395457 -0.38120903 -3.69831017 0.00561809 0 0 Z " fill="#453C2F" transform="translate(47,38.8671875)"/>
<path d="M0 0 C3.375 -0.125 3.375 -0.125 7 0 C9 2 9 2 9 5 C10.65 5 12.3 5 14 5 C14.495 6.485 14.495 6.485 15 8 C16.98045559 8.66179847 16.98045559 8.66179847 19 9 C20 10 20 10 20.1875 12.9375 C20 16 20 16 18 18 C15.41935871 18.14497985 12.95056116 18.18677545 10.375 18.125 C9.31539062 18.11146484 9.31539062 18.11146484 8.234375 18.09765625 C6.48943902 18.07407603 4.74467705 18.03820461 3 18 C3.02094727 19.03930664 3.04189453 20.07861328 3.06347656 21.14941406 C3.13595674 25.01076442 3.18182831 28.87205483 3.21972656 32.73388672 C3.23982393 34.40423702 3.26710683 36.07451713 3.30175781 37.74462891 C3.35036119 40.1476372 3.37298656 42.54971434 3.390625 44.953125 C3.41127014 45.69806213 3.43191528 46.44299927 3.45318604 47.21051025 C3.45462884 50.55542018 3.22802218 52.65053122 1.3828125 55.47851562 C-1.75894591 57.48460562 -3.80203266 57.45814486 -7.515625 57.390625 C-8.76601563 57.37773438 -10.01640625 57.36484375 -11.3046875 57.3515625 C-13.25761719 57.30128906 -13.25761719 57.30128906 -15.25 57.25 C-16.56742188 57.23195312 -17.88484375 57.21390625 -19.2421875 57.1953125 C-22.49552308 57.14816271 -25.74739625 57.08236044 -29 57 C-29.66 58.32 -30.32 59.64 -31 61 C-34.3 61 -37.6 61 -41 61 C-41 60.67 -41 60.34 -41 60 C-40.37351562 59.96261719 -39.74703125 59.92523438 -39.1015625 59.88671875 C-38.28429688 59.82097656 -37.46703125 59.75523438 -36.625 59.6875 C-35.81289063 59.62949219 -35.00078125 59.57148437 -34.1640625 59.51171875 C-31.62078662 59.17009472 -31.62078662 59.17009472 -30 56 C-27.25024414 55.61523438 -27.25024414 55.61523438 -23.78515625 55.59375 C-22.54185547 55.57183594 -21.29855469 55.54992187 -20.01757812 55.52734375 C-18.71240234 55.51832031 -17.40722656 55.50929687 -16.0625 55.5 C-13.49075738 55.48216721 -10.91906213 55.45152592 -8.34765625 55.40625 C-7.20304932 55.39916016 -6.05844238 55.39207031 -4.87915039 55.38476562 C-2.07084644 55.18523637 -2.07084644 55.18523637 -0.12158203 53.97143555 C1.66969324 50.82286179 1.36563982 47.57125165 1.29296875 44.05078125 C1.28660149 42.89185616 1.28660149 42.89185616 1.28010559 41.70951843 C1.26332183 39.24349008 1.22567147 36.77828104 1.1875 34.3125 C1.17245271 32.63998577 1.15876438 30.96745872 1.14648438 29.29492188 C1.11597165 25.19604553 1.05725368 21.09893904 1 17 C0.67 24.92 0.34 32.84 0 41 C-0.33 41 -0.66 41 -1 41 C-1.495 28.625 -1.495 28.625 -2 16 C-3.65 16 -5.3 16 -7 16 C-7 15.34 -7 14.68 -7 14 C-22.84 14.495 -22.84 14.495 -39 15 C-40.44962183 17.89924366 -40.22126481 20.52300355 -40.31640625 23.7578125 C-40.33718735 24.42086395 -40.35796844 25.08391541 -40.37937927 25.76705933 C-40.44479231 27.88626694 -40.50372105 30.005599 -40.5625 32.125 C-40.60569309 33.56121081 -40.64930764 34.99740902 -40.69335938 36.43359375 C-40.80046499 39.95559594 -40.90175575 43.47773825 -41 47 C-40.34 47 -39.68 47 -39 47 C-39 41.06 -39 35.12 -39 29 C-38.67 29 -38.34 29 -38 29 C-37.67 36.26 -37.34 43.52 -37 51 C-32.71 51.66 -28.42 52.32 -24 53 C-24 53.33 -24 53.66 -24 54 C-29.91407936 55.32765047 -32.8309358 54.8379176 -38 52 C-38.66 51.01 -39.32 50.02 -40 49 C-42.38564077 49.57584432 -44.66682784 50.22227595 -47 51 C-47.99 50.34 -48.98 49.68 -50 49 C-47.36 48.34 -44.72 47.68 -42 47 C-42.0314209 45.62279785 -42.0314209 45.62279785 -42.06347656 44.21777344 C-42.13174583 40.80344572 -42.18184385 37.38984557 -42.21972656 33.97509766 C-42.23981301 32.4987441 -42.26708801 31.02246981 -42.30175781 29.54638672 C-42.35041184 27.42135038 -42.37299673 25.29736766 -42.390625 23.171875 C-42.41157227 21.8940918 -42.43251953 20.61630859 -42.45410156 19.29980469 C-42 16 -42 16 -40.31542969 13.59204102 C-37.53031694 11.67705575 -35.92376168 11.45209932 -32.5625 11.35546875 C-31.50160156 11.31873047 -30.44070312 11.28199219 -29.34765625 11.24414062 C-28.24292969 11.22544922 -27.13820313 11.20675781 -26 11.1875 C-24.38931641 11.13045898 -24.38931641 11.13045898 -22.74609375 11.07226562 C-17.3029115 10.91833689 -11.87604302 10.95825906 -6.4375 11.23828125 C-5.48746094 11.28637939 -4.53742188 11.33447754 -3.55859375 11.3840332 C-0.35788633 12.15458519 0.77015219 13.65030223 3 16 C6.5035635 16.48324206 6.5035635 16.48324206 10.25 16.25 C11.51328125 16.21390625 12.7765625 16.1778125 14.078125 16.140625 C15.04234375 16.09421875 16.0065625 16.0478125 17 16 C17.33 14.35 17.66 12.7 18 11 C13.4947161 7.64377102 13.4947161 7.64377102 8 7 C7.505 4.525 7.505 4.525 7 2 C4.69 2 2.38 2 0 2 C0 1.34 0 0.68 0 0 Z " fill="#533A37" transform="translate(72,19)"/>
<path d="M0 0 C2.6875 0.3125 2.6875 0.3125 5 1 C5.33 2.65 5.66 4.3 6 6 C6.58265625 5.78472656 7.1653125 5.56945312 7.765625 5.34765625 C10 5 10 5 11.921875 5.99609375 C12.52515625 6.47175781 13.1284375 6.94742187 13.75 7.4375 C14.36359375 7.91058594 14.9771875 8.38367187 15.609375 8.87109375 C16.06828125 9.24363281 16.5271875 9.61617187 17 10 C16.125 14.875 16.125 14.875 15 16 C12.73382392 16.17883149 10.46028615 16.26802736 8.1875 16.3125 C6.94355469 16.34988281 5.69960937 16.38726562 4.41796875 16.42578125 C0.36946377 15.9214532 -0.31683109 14.89514483 -3 12 C-5.57117914 11.31125617 -5.57117914 11.31125617 -8.25 11.25 C-9.14203125 11.19328125 -10.0340625 11.1365625 -10.953125 11.078125 C-11.96632812 11.03945313 -11.96632812 11.03945313 -13 11 C-11.8125 7.5625 -11.8125 7.5625 -10 4 C-7.4542148 3.06861517 -5.67137312 3 -3 3 C-2.3503125 2.2265625 -2.3503125 2.2265625 -1.6875 1.4375 C-1.130625 0.963125 -0.57375 0.48875 0 0 Z " fill="#F4F2E5" transform="translate(74,20)"/>
<path d="M0 0 C2.0625 0.1875 2.0625 0.1875 4 1 C4.33 1.99 4.66 2.98 5 4 C6.89179203 4.6814823 6.89179203 4.6814823 9 5 C9.99 5.33 10.98 5.66 12 6 C12.8125 7.9375 12.8125 7.9375 13 10 C10.13089949 12.86910051 7.8143074 12.4813693 3.8125 12.75 C2.51957031 12.84796875 1.22664063 12.9459375 -0.10546875 13.046875 C-4.24868656 12.99700678 -7.11051047 12.31163071 -11 11 C-11 9.68 -11 8.36 -11 7 C-10.01 6.67 -9.02 6.34 -8 6 C-7.26676204 3.98491642 -7.26676204 3.98491642 -7 2 C-6.21625 2.04125 -5.4325 2.0825 -4.625 2.125 C-1.83883881 2.28728734 -1.83883881 2.28728734 0 0 Z " fill="#F7F5E9" transform="translate(29,67)"/>
<path d="M0 0 C3.375 -0.125 3.375 -0.125 7 0 C9 2 9 2 9 5 C10.65 5 12.3 5 14 5 C14.495 6.485 14.495 6.485 15 8 C16.98045559 8.66179847 16.98045559 8.66179847 19 9 C20 10 20 10 20.1875 12.9375 C20 16 20 16 18 18 C15.41935871 18.14497985 12.95056116 18.18677545 10.375 18.125 C9.31539062 18.11146484 9.31539062 18.11146484 8.234375 18.09765625 C6.48943902 18.07407603 4.74467705 18.03820461 3 18 C3.02094727 19.03930664 3.04189453 20.07861328 3.06347656 21.14941406 C3.13595674 25.01076442 3.18182831 28.87205483 3.21972656 32.73388672 C3.23982393 34.40423702 3.26710683 36.07451713 3.30175781 37.74462891 C3.35036119 40.1476372 3.37298656 42.54971434 3.390625 44.953125 C3.41127014 45.69806213 3.43191528 46.44299927 3.45318604 47.21051025 C3.45462884 50.55542018 3.22802218 52.65053122 1.3828125 55.47851562 C-1.75894591 57.48460562 -3.80203266 57.45814486 -7.515625 57.390625 C-8.76601563 57.37773438 -10.01640625 57.36484375 -11.3046875 57.3515625 C-13.25761719 57.30128906 -13.25761719 57.30128906 -15.25 57.25 C-16.56742188 57.23195312 -17.88484375 57.21390625 -19.2421875 57.1953125 C-22.49552308 57.14816271 -25.74739625 57.08236044 -29 57 C-29.66 58.32 -30.32 59.64 -31 61 C-34.3 61 -37.6 61 -41 61 C-41 60.67 -41 60.34 -41 60 C-40.37351562 59.96261719 -39.74703125 59.92523438 -39.1015625 59.88671875 C-38.28429688 59.82097656 -37.46703125 59.75523438 -36.625 59.6875 C-35.81289063 59.62949219 -35.00078125 59.57148437 -34.1640625 59.51171875 C-31.62078662 59.17009472 -31.62078662 59.17009472 -30 56 C-27.25024414 55.61523438 -27.25024414 55.61523438 -23.78515625 55.59375 C-22.54185547 55.57183594 -21.29855469 55.54992187 -20.01757812 55.52734375 C-18.71240234 55.51832031 -17.40722656 55.50929687 -16.0625 55.5 C-13.49075738 55.48216721 -10.91906213 55.45152592 -8.34765625 55.40625 C-7.20304932 55.39916016 -6.05844238 55.39207031 -4.87915039 55.38476562 C-2.07210684 55.18680908 -2.07210684 55.18680908 -0.13525391 53.97143555 C1.66908645 50.83809181 1.48171101 47.57332133 1.51171875 44.05078125 C1.52966995 43.27816452 1.54762115 42.50554779 1.56611633 41.70951843 C1.62026104 39.243901 1.65412731 36.77847757 1.6875 34.3125 C1.72066952 32.63994694 1.75515885 30.96741949 1.79101562 29.29492188 C1.87598949 25.1967545 1.9427802 21.09864506 2 17 C6.95 16.67 11.9 16.34 17 16 C17.33 14.35 17.66 12.7 18 11 C13.4947161 7.64377102 13.4947161 7.64377102 8 7 C7.505 4.525 7.505 4.525 7 2 C4.69 2 2.38 2 0 2 C0 1.34 0 0.68 0 0 Z " fill="#4D3331" transform="translate(72,19)"/>
<path d="M0 0 C5.28 0 10.56 0 16 0 C16 1.98 16 3.96 16 6 C10.72 6 5.44 6 0 6 C0 4.02 0 2.04 0 0 Z " fill="#7A7A7A" transform="translate(44,41)"/>
<path d="M0 0 C4.92957259 -0.07414321 9.85882081 -0.12859817 14.78881836 -0.16479492 C16.4659592 -0.17988384 18.14306057 -0.20035748 19.82006836 -0.22631836 C22.23040504 -0.26269811 24.64022019 -0.27972486 27.05078125 -0.29296875 C27.80087967 -0.30845261 28.55097809 -0.32393646 29.32380676 -0.33988953 C32.22178152 -0.34082694 34.45128151 -0.31900987 36.9921875 1.15820312 C38.43932306 3.80287141 38.24158032 5.76442521 38.07421875 8.76171875 C38.01943359 9.87998047 37.96464844 10.99824219 37.90820312 12.15039062 C37.79895508 13.90125977 37.79895508 13.90125977 37.6875 15.6875 C37.62626953 16.86634766 37.56503906 18.04519531 37.50195312 19.25976562 C37.34856044 22.17422669 37.18069004 25.08712459 37 28 C36.67 28 36.34 28 36 28 C35.505 15.625 35.505 15.625 35 3 C33.35 3 31.7 3 30 3 C30 2.34 30 1.68 30 1 C20.1 1 10.2 1 0 1 C0 0.67 0 0.34 0 0 Z " fill="#93827B" transform="translate(35,32)"/>
<path d="M0 0 C3.375 -0.125 3.375 -0.125 7 0 C9 2 9 2 9 5 C10.65 5 12.3 5 14 5 C14.33 5.99 14.66 6.98 15 8 C16.98045559 8.66179847 16.98045559 8.66179847 19 9 C20 10 20 10 20.0625 13.0625 C20.041875 14.031875 20.02125 15.00125 20 16 C18.02 16.99 18.02 16.99 16 18 C16.66 17.01 17.32 16.02 18 15 C18.07272562 12.44539786 18.07272562 12.44539786 17 10 C13.68035674 7.39811744 12.30683959 7 8 7 C7.67 5.35 7.34 3.7 7 2 C4.69 2 2.38 2 0 2 C0 1.34 0 0.68 0 0 Z " fill="#563D3A" transform="translate(72,19)"/>
<path d="M0 0 C1.98 0 3.96 0 6 0 C6.33 0.66 6.66 1.32 7 2 C9.02463255 2.65213292 9.02463255 2.65213292 11 3 C11 3.66 11 4.32 11 5 C7.7 5 4.4 5 1 5 C1 4.34 1 3.68 1 3 C-1.97 3 -4.94 3 -8 3 C-8 2.67 -8 2.34 -8 2 C-5.36 1.67 -2.72 1.34 0 1 C0 0.67 0 0.34 0 0 Z " fill="#EFF9F7" transform="translate(13,46)"/>
<path d="M0 0 C1.98 0 3.96 0 6 0 C6.33 0.99 6.66 1.98 7 3 C9.475 3.495 9.475 3.495 12 4 C12 4.33 12 4.66 12 5 C8.37 5 4.74 5 1 5 C1 4.34 1 3.68 1 3 C-1.97 3 -4.94 3 -8 3 C-8 2.67 -8 2.34 -8 2 C-5.36 1.67 -2.72 1.34 0 1 C0 0.67 0 0.34 0 0 Z " fill="#F3FBF9" transform="translate(87,63)"/>
<path d="M0 0 C2.64 0 5.28 0 8 0 C8 1.32 8 2.64 8 4 C5.36 4 2.72 4 0 4 C0 2.68 0 1.36 0 0 Z " fill="#CECECC" transform="translate(45,61)"/>
</svg>
